<svg width="120" height="136" viewBox="0 0 120 136" fill="none" xmlns="http://www.w3.org/2000/svg">
<path d="M119.071 67.667C119.071 77.7063 119.074 87.7453 119.08 97.784C119.109 99.5206 118.519 101.211 117.417 102.553C116.891 103.183 116.252 103.709 115.533 104.105C111.728 106.305 107.92 108.503 104.11 110.699C100.539 112.761 96.9693 114.825 93.4 116.891C89.71 119.021 86.0193 121.149 82.328 123.275C79.5093 124.902 76.691 126.53 73.873 128.16C70.5397 130.086 67.2047 132.012 63.868 133.938C63.1643 134.388 62.4093 134.753 61.619 135.024C60.6805 135.317 59.6905 135.409 58.7141 135.293C57.7376 135.177 56.7967 134.856 55.953 134.351C51.257 131.646 46.5647 128.934 41.876 126.217C37.316 123.585 32.7547 120.955 28.192 118.327C24.62 116.265 21.05 114.201 17.482 112.134C13.8073 110.012 10.1313 107.892 6.454 105.775C5.524 105.239 4.592 104.707 3.664 104.166C2.77146 103.674 1.99628 102.995 1.392 102.174C0.787715 101.354 0.368735 100.412 0.164 99.414C0.054836 98.9144 -0.000148283 98.4044 3.00328e-07 97.893C3.00328e-07 77.747 0.00433363 57.6004 0.0130003 37.453C-0.0261526 36.1973 0.283824 34.9554 0.908446 33.8654C1.53307 32.7754 2.44784 31.8801 3.551 31.279C7.537 28.947 11.551 26.658 15.551 24.349C18.7103 22.5257 21.868 20.701 25.024 18.875C29.3627 16.371 33.702 13.8674 38.042 11.364C41.614 9.30202 45.1833 7.23802 48.75 5.17202C51.214 3.74802 53.659 2.28902 56.15 0.912018C57.1147 0.351143 58.2039 0.0391843 59.3192 0.00426918C60.4346 -0.0306459 61.5411 0.21258 62.539 0.712018C63.957 1.37902 65.273 2.24502 66.631 3.02702C70.3223 5.15168 74.012 7.27969 77.7 9.41102C80.622 11.0984 83.5433 12.7864 86.464 14.475C90.1693 16.6144 93.8743 18.7517 97.579 20.887C100.723 22.7023 103.866 24.518 107.009 26.334C109.871 27.988 112.75 29.614 115.588 31.308C116.678 31.9108 117.58 32.8032 118.194 33.8866C118.809 34.97 119.111 36.2023 119.069 37.447C119.072 47.5204 119.072 57.5937 119.071 67.667ZM20.264 35.615C20.4547 35.5338 20.6645 35.5085 20.869 35.542C23.153 35.542 25.436 35.537 27.72 35.55C31.348 35.57 34.977 35.497 38.603 35.737C40.473 35.861 42.337 36.021 44.197 36.249C47.1054 36.6073 49.9923 37.1227 52.845 37.793C58.0469 38.9993 63.0917 40.8033 67.879 43.169C69.6942 44.0741 71.4613 45.0728 73.173 46.161C76.272 48.1199 79.1707 50.3791 81.827 52.906C82.753 53.786 83.643 54.706 84.507 55.647C85.9856 57.2507 87.3632 58.9447 88.632 60.719C88.7519 60.9198 88.9246 61.0838 89.1312 61.1933C89.3378 61.3028 89.5705 61.3535 89.804 61.34C96.3487 61.3227 102.894 61.319 109.439 61.329C110.239 61.329 110.239 61.329 110.239 60.504V39.182C110.239 39.029 110.239 38.875 110.239 38.722C110.242 38.6365 110.221 38.5519 110.179 38.4774C110.137 38.4029 110.075 38.3416 110 38.3C109.868 38.221 109.739 38.14 109.606 38.063C107.436 36.811 105.266 35.5597 103.096 34.309C100.425 32.767 97.755 31.2234 95.085 29.678C91.3957 27.5494 87.7057 25.4207 84.015 23.292C81.093 21.606 78.1717 19.9177 75.251 18.227L64.892 12.245C63.2693 11.3084 61.647 10.3694 60.025 9.42802C59.8979 9.33159 59.7442 9.27668 59.5847 9.27078C59.4253 9.26487 59.2679 9.30826 59.134 9.39502C55.2313 11.665 51.322 13.925 47.406 16.175C43.5853 18.383 39.7647 20.5913 35.944 22.8C30.3953 26.0053 24.8473 29.2087 19.3 32.41C16.023 34.301 12.752 36.2 9.465 38.074C9.2763 38.1647 9.12024 38.3114 9.0182 38.4942C8.91616 38.677 8.87313 38.8868 8.895 39.095C8.911 42.623 8.903 46.151 8.904 49.679C8.904 50.465 8.904 50.466 9.694 50.466H31.216C31.336 50.466 31.455 50.466 31.574 50.466C31.796 50.461 31.848 50.353 31.741 50.166C31.568 49.872 31.389 49.582 31.208 49.293C30.0274 47.5196 28.7295 45.8272 27.323 44.227C25.0657 41.517 22.8097 38.8067 20.555 36.096C20.4113 35.9691 20.3097 35.8013 20.264 35.615V35.615ZM19.939 99.721C20.086 99.4627 20.2644 99.2236 20.47 99.009C21.7087 97.5357 22.9497 96.0643 24.193 94.595C25.567 92.9683 26.942 91.3424 28.318 89.717C29.4385 88.4099 30.4631 87.0237 31.384 85.569C31.484 85.416 31.679 85.25 31.591 85.075C31.484 84.865 31.223 84.963 31.03 84.963C23.906 84.9583 16.7817 84.9583 9.657 84.963C8.901 84.963 8.9 84.963 8.9 85.738C8.9 89.249 8.91 92.76 8.887 96.271C8.86669 96.4874 8.91434 96.7047 9.02331 96.8927C9.13229 97.0807 9.29716 97.2301 9.495 97.32C11.704 98.57 13.895 99.852 16.095 101.12L30.886 109.652C35.5793 112.36 40.273 115.068 44.967 117.776C49.601 120.451 54.2343 123.127 58.867 125.805C59.706 126.29 59.477 126.243 60.367 125.731C64.194 123.531 68.01 121.315 71.832 119.108C77.41 115.887 82.989 112.668 88.569 109.451C92.259 107.321 95.948 105.19 99.636 103.058C102.971 101.132 106.303 99.2 109.648 97.292C109.839 97.2081 110 97.0667 110.107 96.8876C110.215 96.7084 110.264 96.5003 110.248 96.292C110.233 89.1 110.229 81.9073 110.238 74.714C110.238 74.036 110.238 74.036 109.553 74.032H97.9C95.156 74.032 92.412 74.032 89.668 74.032C89.5012 74.0131 89.3323 74.0404 89.1799 74.1109C89.0276 74.1815 88.8975 74.2926 88.804 74.432C87.4985 76.3066 86.0616 78.0861 84.504 79.757C82.2315 82.2306 79.7445 84.4981 77.072 86.533C71.8981 90.3926 66.1542 93.422 60.047 95.512C57.2932 96.4671 54.4844 97.2558 51.636 97.874C49.288 98.388 46.9213 98.7957 44.536 99.097C43.184 99.265 41.83 99.397 40.473 99.524C39.065 99.651 37.653 99.764 36.243 99.775C30.977 99.817 25.71 99.803 20.443 99.808C20.27 99.8326 20.0937 99.8021 19.939 99.721ZM25.439 97.154C25.6478 97.2173 25.8666 97.2404 26.084 97.222C28.062 97.222 30.039 97.222 32.016 97.222C34.299 97.222 36.58 97.188 38.86 97.038C40.51 96.9287 42.1543 96.776 43.793 96.58C46.7711 96.2225 49.7253 95.6882 52.64 94.98C58.1696 93.6726 63.5048 91.6485 68.51 88.959C70.6973 87.771 72.8021 86.437 74.81 84.966C77.4429 83.0489 79.8872 80.8855 82.11 78.505C83.246 77.279 84.34 76.021 85.371 74.705C86.0957 73.779 86.786 72.8273 87.442 71.85C87.5128 71.7145 87.6231 71.6038 87.7583 71.5323C87.8935 71.4609 88.0472 71.4322 88.199 71.45C88.351 71.465 88.506 71.45 88.659 71.45H109.267C109.42 71.45 109.574 71.45 109.727 71.45C110.185 71.437 110.238 71.398 110.239 70.955C110.244 68.773 110.244 66.5914 110.239 64.41C110.239 63.964 110.188 63.919 109.732 63.91C108.932 63.903 108.132 63.91 107.332 63.91C100.991 63.91 94.6507 63.91 88.31 63.91C88.1354 63.9312 87.9584 63.9027 87.7992 63.8279C87.64 63.7531 87.5051 63.635 87.41 63.487C86.0523 61.4631 84.5483 59.5413 82.91 57.737C80.9273 55.5305 78.7638 53.4934 76.442 51.647C72.832 48.8076 68.8888 46.4196 64.7 44.536C61.3279 43.0124 57.8357 41.7702 54.259 40.822C49.2969 39.5148 44.2205 38.6883 39.1 38.354C37.283 38.228 35.459 38.173 33.637 38.146C31.183 38.11 28.728 38.132 26.274 38.13C26.174 38.13 26.069 38.13 25.967 38.137C25.754 38.156 25.759 38.27 25.857 38.415C25.8866 38.4566 25.9183 38.4966 25.952 38.535C26.673 39.397 27.397 40.258 28.115 41.123C29.182 42.407 30.26 43.683 31.306 44.984C32.7639 46.8111 34.0368 48.7784 35.106 50.857C35.413 51.446 35.688 52.057 35.963 52.657C36.095 52.946 36.042 53.021 35.728 53.044C35.558 53.056 35.387 53.049 35.217 53.049H9.8C9.613 53.049 9.425 53.049 9.238 53.058C9.19503 53.0538 9.15165 53.0589 9.11083 53.073C9.07001 53.087 9.03271 53.1097 9.00148 53.1396C8.97024 53.1694 8.94581 53.2056 8.92985 53.2457C8.91389 53.2858 8.90678 53.3289 8.909 53.372C8.902 53.525 8.899 53.679 8.899 53.832C8.899 55.7074 8.899 57.5824 8.899 59.457C8.899 60.601 8.799 60.519 9.935 60.519H37.4C37.571 60.519 37.741 60.519 37.912 60.519C38.444 60.529 38.491 60.562 38.587 61.073C38.933 62.9499 39.1299 64.8511 39.176 66.759C39.203 67.729 39.17 68.699 39.111 69.67C39.0188 71.132 38.8466 72.5879 38.595 74.031C38.435 74.957 38.406 74.838 37.623 74.838C28.401 74.838 19.1793 74.838 9.958 74.838C9.788 74.838 9.617 74.838 9.447 74.838C8.961 74.85 8.92 74.89 8.905 75.362C8.905 75.498 8.905 75.635 8.905 75.771V81.447C8.905 82.434 8.85 82.376 9.81 82.376H35.27C36.009 82.376 36.027 82.397 35.713 83.067C34.778 85.0586 33.6602 86.9591 32.374 88.744C30.796 90.93 28.974 92.914 27.255 94.987C26.67 95.7 26.075 96.4 25.437 97.154H25.439ZM22.552 72.261H35.38C35.533 72.261 35.687 72.266 35.84 72.261C36.197 72.24 36.249 72.193 36.299 71.849C36.4782 70.4988 36.5757 69.139 36.591 67.777C36.5948 66.5173 36.5281 65.2583 36.391 64.006C36.318 63.173 36.308 63.174 35.471 63.174H9.76C9.641 63.174 9.521 63.174 9.402 63.174C8.969 63.193 8.918 63.247 8.902 63.693C8.902 63.778 8.902 63.863 8.902 63.948C8.902 66.4687 8.902 68.99 8.902 71.512C8.902 72.262 8.902 72.263 9.675 72.264L22.552 72.261Z" fill="#0FB595"/>
<path d="M41.377 89.364C40.947 89.364 40.887 89.274 41.094 88.91C41.524 88.154 41.914 87.377 42.288 86.592C44.0901 82.837 45.3474 78.8441 46.022 74.734C46.292 73.0351 46.4712 71.323 46.559 69.605C46.622 68.463 46.659 67.322 46.609 66.183C46.485 62.8106 45.9869 59.4625 45.124 56.2C44.4467 53.6808 43.5534 51.2247 42.454 48.859C42.095 48.084 41.695 47.333 41.304 46.577C41.2387 46.4572 41.1806 46.3337 41.13 46.207C41.084 46.084 41.151 46.007 41.273 45.997C41.4089 45.9872 41.5455 45.9899 41.681 46.005C43.762 46.254 45.837 46.544 47.893 46.954C50.7368 47.5125 53.5411 48.2561 56.288 49.18C58.7279 50.0016 61.1082 50.9906 63.412 52.14C66.9263 53.8853 70.2135 56.0548 73.2 58.6C76.0696 61.071 78.6256 63.8843 80.811 66.977C81.311 67.686 81.354 67.582 80.794 68.383C78.8516 71.1255 76.6179 73.6496 74.132 75.911C72.0285 77.8312 69.7445 79.5438 67.3119 81.025C61.3999 84.5909 54.8974 87.07 48.112 88.345C45.955 88.777 43.782 89.093 41.599 89.345C41.517 89.357 41.432 89.36 41.377 89.364ZM49.213 67.57C49.216 69.8194 49.0489 72.0658 48.713 74.29C48.232 77.6324 47.3828 80.9113 46.181 84.067C45.951 84.672 45.697 85.267 45.468 85.873C45.374 86.119 45.433 86.179 45.698 86.153C45.765 86.147 45.831 86.126 45.898 86.114C47.846 85.772 49.778 85.36 51.688 84.845C55.8779 83.7421 59.9227 82.1473 63.738 80.094C67.2161 78.2046 70.4318 75.8677 73.303 73.143C74.9481 71.5582 76.464 69.8444 77.836 68.018C78.07 67.711 78.068 67.653 77.854 67.343C77.786 67.243 77.714 67.149 77.64 67.056C75.8372 64.7221 73.8065 62.5735 71.578 60.642C68.9187 58.371 66.0085 56.4116 62.904 54.802C58.039 52.32 52.8471 50.5394 47.483 49.513C46.915 49.399 46.3453 49.294 45.774 49.198C45.544 49.16 45.496 49.231 45.561 49.454C45.59 49.554 45.634 49.645 45.67 49.741C45.97 50.52 46.293 51.291 46.57 52.079C48.3158 57.0573 49.2093 62.2945 49.213 67.57V67.57Z" fill="#0FB595"/>
</svg>
